<?xml version="1.0" encoding="utf-8"?>
<!-- Generator: Adobe Illustrator 27.5.0, SVG Export Plug-In . SVG Version: 6.00 Build 0)  -->
<svg version="1.1" xmlns="http://www.w3.org/2000/svg" xmlns:xlink="http://www.w3.org/1999/xlink" x="0px" y="0px"
	 viewBox="0 0 2200 2200" style="enable-background:new 0 0 2200 2200;" xml:space="preserve">
<g id="background">
	<rect style="fill:#FFFFFF;" width="2200" height="2200"/>
</g>
<g id="Objects">
	<g>
		<path d="M2028.576,1674.427c-5.276-8.96-11.159-17.6-16.755-26.36c-14.107-22.085-28.215-44.17-42.322-66.254
			c-21.374-33.461-42.748-66.922-64.123-100.382c-26.947-42.185-53.894-84.37-80.841-126.555
			c-30.779-48.183-61.557-96.367-92.336-144.55c-32.869-51.455-65.737-102.91-98.605-154.365
			c-33.377-52.251-66.754-104.502-100.13-156.752c-31.812-49.802-63.625-99.603-95.437-149.405
			c-28.669-44.881-57.338-89.762-86.008-134.643c-23.784-37.234-47.568-74.467-71.352-111.701
			c-17.158-26.86-34.316-53.721-51.474-80.581c-8.809-13.791-17.619-27.581-26.428-41.372c-6.34-9.925-13.7-18.789-22.541-26.679
			c-29.568-26.386-73.928-33.297-110.685-19.052c-28.985,11.233-50.737,31.461-67.516,57.333c-2.371,3.656-4.692,7.345-7.037,11.016
			c-11.632,18.209-23.263,36.418-34.895,54.628c-19.447,30.444-38.895,60.889-58.342,91.333
			c-25.658,40.167-51.316,80.335-76.975,120.502c-29.871,46.763-59.742,93.526-89.614,140.289
			c-32.454,50.806-64.908,101.612-97.361,152.417c-33.295,52.122-66.59,104.245-99.885,156.367
			c-32.394,50.713-64.789,101.426-97.183,152.138c-29.888,46.789-59.776,93.578-89.664,140.368
			c-25.343,39.674-50.686,79.348-76.029,119.021c-19.209,30.072-38.419,60.144-57.628,90.216
			c-11.334,17.743-22.668,35.486-34.002,53.229c-19.869,31.105-32.446,65.244-26.871,102.91
			c8.11,54.787,55.073,93.901,109.907,93.967c14.712,0.018,29.423,0,44.135,0c29.546,0,59.092,0,88.638,0
			c41.588,0,83.177,0,124.765,0c50.838,0,101.675,0,152.513,0c57.585,0,115.171,0,172.756,0c60.97,0,121.94,0,182.91,0
			c61.828,0,123.656,0,185.485,0c59.894,0,119.788,0,179.682,0c55.167,0,110.334,0,165.501,0c47.857,0,95.714,0,143.571,0
			c37.278,0,74.556,0,111.834,0c24.16,0,48.32,0,72.481,0c8.26,0,16.52,0,24.78,0c46.956-0.552,88.003-27.618,110.84-68.264
			C2048.736,1763.378,2052.188,1714.528,2028.576,1674.427z M1035.038,410.817c-0.044,0.075-0.082,0.139-0.124,0.209
			c0.002-0.01,0.008-0.021,0.01-0.031C1034.936,410.938,1035.007,410.869,1035.038,410.817z M1964.436,1809.383
			C1963.239,1809.916,1963.776,1809.672,1964.436,1809.383L1964.436,1809.383z M1990.311,1790.684
			c0.47-0.768,1.995-3.355,2.09-3.203C1992.607,1787.806,1991.643,1789.118,1990.311,1790.684z M2000.037,1763.66
			c-0.167,1.242-0.432,3.444-0.525,4.004c-0.406,2.449-0.96,4.859-1.497,7.281c0,0.001,0,0.001,0,0.002
			c-0.085,0.203-0.182,0.442-0.297,0.736c-0.767,1.962-1.52,3.954-2.243,5.933c-0.049,0.135-0.091,0.252-0.133,0.369
			c-0.987,1.772-1.929,3.563-2.981,5.301c-0.543,0.897-1.183,1.764-1.688,2.681c-0.23,0.417-0.367,0.669-0.439,0.806
			c-2.229,2.609-5.427,5.873-5.962,6.456c3.386-3.688,1.618-1.712-0.767,0.39c-1.604,1.413-3.299,2.702-4.94,4.068
			c-0.231,0.193-0.422,0.355-0.581,0.494c-0.206,0.109-0.454,0.246-0.765,0.423c-1.879,1.069-3.688,2.25-5.593,3.28
			c-2.144,1.16-4.337,2.214-6.56,3.212c-0.939,0.342-1.877,0.688-2.831,0.985c-9.381,2.923-17.04,4.313-25.299,4.41
			c-8.672,0-17.343,0-26.015,0c-24.206,0-48.413,0-72.619,0c-37.03,0-74.06,0-111.09,0c-46.889,0-93.778,0-140.667,0
			c-54.512,0-109.024,0-163.536,0c-59.214,0-118.428,0-177.642,0c-61.204,0-122.409,0-183.613,0c-60.483,0-120.966,0-181.449,0
			c-57.05,0-114.1,0-171.151,0c-50.906,0-101.811,0-152.716,0c-41.868,0-83.737,0-125.605,0c-30.545,0-61.091,0-91.636,0
			c-16.279,0-32.558,0-48.837,0c-4.748,0-9.479,0.043-14.221-0.351c-18.169-1.509-32.922-7.869-47.743-19.746
			c-4.599-3.686-11.358-11.579-15.932-18.616c-1.151-1.772-2.244-3.578-3.279-5.421c-0.5-0.891-2.363-4.48-2.262-4.216
			c-0.72-1.587-3.054-7.841-4.051-11.236c-1.051-3.58-1.903-7.235-2.523-10.919c0.05,0.012-0.278-2.851-0.345-3.88
			c-0.161-2.502-0.218-5.01-0.18-7.517c0.009-0.589,0.156-2.898,0.218-4.149c0.226-1.391,0.65-4.296,0.815-5.161
			c0.355-1.858,0.801-3.69,1.249-5.525c-0.996,4.169,0.41-0.965,1.281-3.234c0.318-0.829,1.938-4.163,2.151-4.769
			c0.591-1.026,1.195-2.077,1.407-2.438c0.624-1.06,1.273-2.102,1.925-3.145c0.141-0.225,0.288-0.447,0.429-0.672
			c2.141-3.405,4.33-6.779,6.495-10.168c11.182-17.506,22.365-35.012,33.547-52.517c18.922-29.621,37.843-59.243,56.765-88.864
			c24.834-38.878,49.669-77.756,74.503-116.633c29.309-45.883,58.618-91.765,87.927-137.648
			c31.983-50.069,63.966-100.138,95.949-150.207c32.966-51.608,65.932-103.216,98.898-154.823
			c32.258-50.499,64.516-100.999,96.774-151.498c29.859-46.743,59.718-93.487,89.577-140.23
			c25.768-40.34,51.537-80.68,77.305-121.02c19.906-31.162,39.811-62.324,59.717-93.486c12.556-19.656,25.112-39.312,37.667-58.967
			c2.958-4.631,5.956-9.24,8.876-13.896c0.166-0.264,0.419-0.582,0.678-0.919c-1.351,2.333,1.787-2.719,3.341-4.608
			c1.108-1.348,2.721-3.087,2.655-3.088c1.044-0.994,2.101-1.974,3.19-2.919c1.697-1.473,3.47-2.842,5.237-4.229
			c-4.061,3.188,0.916-0.544,2.592-1.544c13.365-7.976,28.22-11.785,45.79-10.435c18.146,1.395,32.948,7.38,47.998,19.34
			c6.761,5.373,13.651,14.558,19.213,23.265c8.527,13.348,17.053,26.697,25.58,40.045c16.774,26.259,33.547,52.518,50.321,78.776
			c23.33,36.523,46.66,73.045,69.99,109.568c28.047,43.907,56.094,87.813,84.14,131.72c31.357,49.089,62.715,98.178,94.072,147.268
			c32.849,51.424,65.697,102.847,98.545,154.271c32.648,51.111,65.297,102.221,97.946,153.332
			c30.757,48.15,61.515,96.301,92.272,144.451c27.175,42.543,54.351,85.085,81.526,127.628
			c21.902,34.287,43.804,68.575,65.706,102.862c14.884,23.301,29.768,46.602,44.652,69.902c6.329,9.907,12.739,19.768,18.988,29.725
			c4.796,7.642,6.699,11.455,9.221,19.744c0.65,2.138,1.224,4.295,1.722,6.473c0.157,0.69,0.684,3.438,0.911,4.5
			c0.084,1.024,0.383,3.837,0.427,4.549c0.132,2.156,0.189,4.313,0.172,6.474C2000.18,1760.241,2000.081,1762.383,2000.037,1763.66z
			"/>
		<path d="M1084.419,1347.576c4.806,2.775,11.535,1.34,16.013-1.294c12.834-7.55,20.76-23.252,22.035-38.165
			c11.811-138.143,49.205-481.96,49.205-556.748c0-92.446-150.708-83.849-158.925,33.239
			c-4.155,59.207,59.861,530.78,63.362,548.446C1077.123,1338.168,1079.581,1344.783,1084.419,1347.576z"/>
		<path d="M1120.267,1473.405c-0.16-0.061-0.32-0.122-0.48-0.182c-38.728-14.618-81.358,11.516-85.811,52.671
			c-0.219,2.025-0.361,4.06-0.422,6.101c-1.131,37.843,27.375,75.4,64.772,81.311c37.381,5.911,77.551-23.869,79.782-61.649
			C1180.147,1517,1152.693,1485.802,1120.267,1473.405z"/>
		<path d="M1779.023,1448.282c1.586-3.239,3.89-9.371-0.199-11.853c-3.795-2.304-8.9,2.764-10.365,5.754
			c-43.602,89.032-87.205,178.064-130.807,267.095c-12.291,25.096-24.581,50.192-36.872,75.289
			c-1.586,3.239-3.89,9.371,0.199,11.853c3.795,2.304,8.9-2.764,10.365-5.754c43.602-89.032,87.205-178.064,130.807-267.095
			C1754.442,1498.474,1766.733,1473.378,1779.023,1448.282z"/>
		<path d="M1592.655,1679.037c-3.795-2.304-8.9,2.764-10.365,5.754c-16.288,33.259-32.576,66.517-48.864,99.776
			c-1.586,3.239-3.89,9.371,0.199,11.853c3.795,2.304,8.9-2.764,10.365-5.754c16.288-33.259,32.576-66.517,48.864-99.776
			C1594.44,1687.652,1596.744,1681.52,1592.655,1679.037z"/>
		<path d="M1504.724,1721.053c-3.795-2.304-8.9,2.764-10.365,5.754c-9.429,19.253-18.858,38.507-28.287,57.76
			c-1.586,3.239-3.89,9.371,0.199,11.853c3.795,2.304,8.9-2.764,10.365-5.754c9.429-19.253,18.858-38.507,28.287-57.76
			C1506.51,1729.668,1508.813,1723.535,1504.724,1721.053z"/>
		<path d="M1420.112,1756.292c-3.795-2.304-8.9,2.764-10.365,5.754c-3.677,7.507-7.353,15.014-11.029,22.521
			c-1.586,3.239-3.89,9.371,0.199,11.853c3.795,2.304,8.9-2.764,10.365-5.754c3.676-7.507,7.353-15.014,11.029-22.521
			C1421.897,1764.907,1424.201,1758.775,1420.112,1756.292z"/>
		<path d="M1824.195,1517.405c1.586-3.239,3.89-9.371-0.199-11.853c-3.795-2.304-8.9,2.764-10.365,5.754
			c-34.696,70.845-69.391,141.691-104.087,212.536c-9.913,20.241-19.826,40.483-29.739,60.725c-1.586,3.239-3.89,9.371,0.199,11.853
			c3.795,2.304,8.9-2.764,10.365-5.754c34.696-70.845,69.391-141.691,104.087-212.536
			C1804.369,1557.888,1814.282,1537.646,1824.195,1517.405z"/>
		<path d="M1869.167,1574.675c-3.795-2.304-8.9,2.764-10.365,5.754c-33.325,68.046-66.65,136.092-99.974,204.138
			c-1.586,3.239-3.89,9.371,0.199,11.853c3.795,2.304,8.9-2.764,10.365-5.754c33.325-68.046,66.65-136.092,99.974-204.138
			C1870.953,1583.29,1873.257,1577.157,1869.167,1574.675z"/>
		<path d="M1917.658,1637.021c-3.795-2.304-8.9,2.764-10.365,5.754c-23.147,47.264-46.294,94.528-69.441,141.792
			c-1.586,3.239-3.89,9.371,0.199,11.853c3.795,2.304,8.9-2.764,10.365-5.754c23.147-47.264,46.294-94.528,69.441-141.792
			C1919.443,1645.636,1921.747,1639.504,1917.658,1637.021z"/>
		<path d="M1960.174,1711.566c-3.795-2.304-8.9,2.764-10.365,5.754c-10.978,22.416-21.956,44.832-32.934,67.247
			c-1.586,3.239-3.89,9.371,0.199,11.853c3.795,2.304,8.9-2.764,10.365-5.754c10.978-22.416,21.956-44.832,32.934-67.247
			C1961.96,1720.18,1964.264,1714.048,1960.174,1711.566z"/>
		<path d="M1069.175,442.345c1.667-2.565,3.092-8.101-0.17-10.08c-3.442-2.089-7.274,2.523-8.815,4.893
			c-18.435,28.364-36.561,56.932-54.576,85.564c-35.68,56.71-70.861,113.771-104.399,171.778
			c-16.627,28.757-32.987,57.737-47.731,87.514c-1.361,2.748-3.3,7.974,0.17,10.08c3.235,1.964,7.559-2.356,8.815-4.893
			c28.171-56.893,61.247-111.466,94.186-165.684c30.468-50.151,61.646-99.872,93.283-149.294
			C1056.324,462.248,1062.72,452.277,1069.175,442.345z"/>
		<path d="M828.564,837.367c-3.334-2.023-7.421,2.433-8.815,4.893c-3.921,6.925-7.843,13.85-11.764,20.774
			c-1.509,2.665-3.201,8.034,0.17,10.08c3.333,2.023,7.421-2.433,8.815-4.893c3.921-6.925,7.843-13.85,11.764-20.774
			C830.243,844.782,831.935,839.413,828.564,837.367z"/>
	</g>
</g>
</svg>
